<?xml version="1.0" encoding="iso-8859-1"?>
<!-- Generator: Adobe Illustrator 19.0.0, SVG Export Plug-In . SVG Version: 6.00 Build 0)  -->
<svg version="1.1" id="Capa_1" xmlns="http://www.w3.org/2000/svg" xmlns:xlink="http://www.w3.org/1999/xlink" x="0px" y="0px"
	 viewBox="0 0 512 512" style="enable-background:new 0 0 512 512;" xml:space="preserve">
<linearGradient id="SVGID_1_" gradientUnits="userSpaceOnUse" x1="256" y1="513.832" x2="256" y2="2.168" gradientTransform="matrix(1 0 0 -1 0 514)">
	<stop  offset="0" style="stop-color:#2AF598"/>
	<stop  offset="1" style="stop-color:#009EFD"/>
</linearGradient>
<path style="fill:url(#SVGID_1_);" d="M199,217.521V469.65l69.422-59.41l48.531,101.592l36.094-17.242l-48.015-100.511
	l100.815-10.216L199,217.521z M239,301.018l65.761,52.884l-36.327,3.682L239,382.771V301.018z M0,218.211h159v40H0V218.211z
	 M260,218.211h252v40H310L260,218.211z M139.643,79.494C143.077,72.281,145,64.217,145,55.711c0-30.603-24.897-55.5-55.5-55.5H0v182
	h110.5c30.603,0,55.5-24.897,55.5-55.5C166,106.788,155.45,89.285,139.643,79.494z M40,40.211h49.5c8.547,0,15.5,6.953,15.5,15.5
	s-6.953,15.5-15.5,15.5H87H40V40.211z M110.5,142.211H40v-31h70.5c8.547,0,15.5,6.953,15.5,15.5S119.047,142.211,110.5,142.211z
	 M186,107.211v-107h40v107c0,19.252,15.688,34.923,35,35c19.313-0.077,35-15.748,35-35v-107h40v107
	c0,41.262-33.554,74.848-74.858,74.999v0.001h-0.283C219.554,182.059,186,148.473,186,107.211z M512,0.211v37
	c0,1.217-0.029,2.424-0.087,3.626l-0.107,50.417c0,50.135-40.798,90.957-90.946,90.957c-12.867,0-25.318-2.645-37.008-7.859
	l16.297-36.529c6.528,2.912,13.496,4.389,20.711,4.389c23.505,0,43.344-16.02,49.195-37.724c-9.937,4.904-21.108,7.68-32.913,7.723
	v0.001h-0.283c-41.305-0.152-74.858-33.738-74.858-75v-37h40v37c0,19.252,15.688,34.923,35,35
	c18.491-0.073,33.659-14.442,34.916-32.563L472,0.168L512,0.211z"/>
<g>
</g>
<g>
</g>
<g>
</g>
<g>
</g>
<g>
</g>
<g>
</g>
<g>
</g>
<g>
</g>
<g>
</g>
<g>
</g>
<g>
</g>
<g>
</g>
<g>
</g>
<g>
</g>
<g>
</g>
</svg>
